<?xml version="1.0" encoding="UTF-8"?>
<svg width="12px" height="12px" viewBox="0 0 12 12" version="1.1" xmlns="http://www.w3.org/2000/svg" xmlns:xlink="http://www.w3.org/1999/xlink">
    <!-- Generator: Sketch 47 (45396) - http://www.bohemiancoding.com/sketch -->
    <title>Group 7</title>
    <desc>Created with Sketch.</desc>
    <defs></defs>
    <g id="Symbols" stroke="none" stroke-width="1" fill="none" fill-rule="evenodd">
        <g id="编辑词条" transform="translate(-7.000000, -6.000000)" fill-rule="nonzero" fill="#333333">
            <g id="添加图片">
                <g id="Group-7" transform="translate(7.000000, 6.000000)">
                    <g id="edit-(2)">
                        <path d="M10.6168506,6.88370537 C10.3438626,6.88370537 10.1225901,7.10497883 10.1225901,7.37796801 L10.1225901,10.3810162 C10.1225901,10.7286634 9.83975607,11.0114747 9.4921343,11.0114747 L1.61900071,11.0114747 C1.27135504,11.0114747 0.988544924,10.7286395 0.988544924,10.3810162 L0.988544924,2.50787267 C0.988544924,2.1602255 1.27137894,1.87741417 1.61900071,1.87741417 L4.62203601,1.87741417 C4.89500011,1.87741417 5.11629652,1.6561168 5.11629652,1.38315153 C5.11629652,1.11018625 4.89500011,0.888888889 4.62203601,0.888888889 L1.61900071,0.888888889 C0.72628717,0.888888889 0,1.61517918 0,2.50789656 L0,10.3810401 C2.38981004e-05,11.2737097 0.726311068,12 1.61900071,12 L9.4921104,12 C10.3848239,12 11.1111111,11.2737097 11.1111111,10.3809923 L11.1111111,7.37794411 C11.1111111,7.10497883 10.8898386,6.88370537 10.6168506,6.88370537 Z" id="Shape"></path>
                        <path d="M11.85478,2.40158494 L9.59840421,0.145213729 C9.40478551,-0.0484045764 9.09087727,-0.0484045764 8.89725858,0.145213729 L3.25633113,5.78615374 C3.16336922,5.87913943 3.11111111,6.00525382 3.11111111,6.13673783 L3.11111111,8.39310904 C3.11111111,8.6669362 3.33308822,8.88888889 3.60689196,8.88888889 L5.86326773,8.88888889 C5.99477599,8.88888889 6.12086666,8.83665486 6.21382856,8.74369314 L11.85478,3.10272915 C11.9477659,3.00974347 12,2.88362908 12,2.75214506 C12,2.62066104 11.9477659,2.49457063 11.85478,2.40158494 Z M5.65792692,7.89730523 L4.10269678,7.89730523 L4.10269678,6.34207823 L9.24784338,1.19694204 L10.8030735,2.75216903 L5.65792692,7.89730523 Z" id="Shape"></path>
                    </g>
                </g>
            </g>
        </g>
    </g>
</svg>