<svg xmlns="http://www.w3.org/2000/svg" width="16" height="16" viewBox="0 0 16 16">
    <g fill="#666" fill-rule="evenodd" transform="rotate(45 6.375 12.945)">
        <g fill-rule="nonzero">
            <path d="M7.2 4.857C7.2 3.104 5.932 1.7 4.388 1.7c-1.545 0-2.813 1.404-2.813 3.157v2.445H0V4.857C0 2.175 1.964 0 4.388 0 6.81 0 8.775 2.175 8.775 4.857v2.468L7.2 7.321V4.857zm0 2.464V4.857C7.2 3.104 5.932 1.7 4.388 1.7c-1.545 0-2.813 1.404-2.813 3.157v2.445H0V4.857C0 2.175 1.964 0 4.388 0 6.81 0 8.775 2.175 8.775 4.857v2.468L7.2 7.321zM7.2 12.182c0 1.753-1.268 3.157-2.812 3.157-1.545 0-2.813-1.404-2.813-3.157V9.737H0v2.445c0 2.683 1.964 4.857 4.388 4.857 2.423 0 4.387-2.174 4.387-4.857V9.714L7.2 9.718v2.464zm0-2.464v2.464c0 1.753-1.268 3.157-2.812 3.157-1.545 0-2.813-1.404-2.813-3.157V9.737H0v2.445c0 2.683 1.964 4.857 4.388 4.857 2.423 0 4.387-2.174 4.387-4.857V9.714L7.2 9.718z"/>
        </g>
        <rect width="1.575" height="8.5" x="3.6" y="4.371" rx=".787"/>
    </g>
</svg>
